<?xml version="1.0" standalone="yes"?>

<svg version="1.1" viewBox="0.0 0.0 960.0 540.0" fill="none" stroke="none" stroke-linecap="square" stroke-miterlimit="10" xmlns="http://www.w3.org/2000/svg" xmlns:xlink="http://www.w3.org/1999/xlink"><clipPath id="p.0"><path d="m0 0l960.0 0l0 540.0l-960.0 0l0 -540.0z" clip-rule="nonzero"></path></clipPath><g clip-path="url(#p.0)"><path fill="#ffffff" d="m0 0l960.0 0l0 540.0l-960.0 0z" fill-rule="nonzero"></path><path fill="#000000" fill-opacity="0.0" d="m490.66888 208.21114l0.52697754 -36.93257" fill-rule="nonzero"></path><path stroke="#666666" stroke-width="1.0" stroke-linejoin="round" stroke-linecap="butt" d="m490.66888 208.21112l0.44140625 -30.933167" fill-rule="evenodd"></path><path fill="#666666" stroke="#666666" stroke-width="1.0" stroke-linecap="butt" d="m492.76184 177.30151l-1.5868225 -4.561203l-1.7163086 4.514084z" fill-rule="evenodd"></path><path fill="#000000" fill-opacity="0.0" d="m143.73099 425.1399l34.330704 0l0 46.204742l-34.330704 0z" fill-rule="nonzero"></path><path fill="#000000" d="m156.38724 447.0574l-2.609375 -0.484375q0.4375 -1.578125 1.515625 -2.328125q1.078125 -0.765625 3.203125 -0.765625q1.921875 0 2.859375 0.46875q0.953125 0.453125 1.328125 1.15625q0.390625 0.703125 0.390625 2.578125l-0.03125 3.359375q0 1.4375 0.140625 2.125q0.140625 0.671875 0.515625 1.453125l-2.84375 0q-0.109375 -0.28125 -0.28125 -0.84375q-0.078125 -0.265625 -0.109375 -0.34375q-0.734375 0.71875 -1.578125 1.078125q-0.828125 0.359375 -1.78125 0.359375q-1.6875 0 -2.65625 -0.90625q-0.96875 -0.921875 -0.96875 -2.3125q0 -0.921875 0.4375 -1.640625q0.4375 -0.734375 1.234375 -1.109375q0.796875 -0.390625 2.296875 -0.6875q2.015625 -0.375 2.796875 -0.703125l0 -0.28125q0 -0.828125 -0.40625 -1.1875q-0.40625 -0.359375 -1.546875 -0.359375q-0.78125 0 -1.21875 0.3125q-0.421875 0.296875 -0.6875 1.0625zm3.859375 2.328125q-0.546875 0.1875 -1.75 0.453125q-1.203125 0.25 -1.578125 0.5q-0.5625 0.390625 -0.5625 1.015625q0 0.59375 0.453125 1.046875q0.453125 0.4375 1.15625 0.4375q0.78125 0 1.484375 -0.515625q0.515625 -0.390625 0.6875 -0.953125q0.109375 -0.375 0.109375 -1.40625l0 -0.578125z" fill-rule="nonzero"></path><path fill="#000000" fill-opacity="0.0" d="m38.812912 425.1399l87.37008 0l0 46.204742l-87.37008 0z" fill-rule="nonzero"></path><path fill="#000000" d="m48.969162 448.04178l0 -1.71875l9.953125 -4.203125l0 1.828125l-7.90625 3.25l7.90625 3.265625l0 1.84375l-9.953125 -4.265625zm19.955292 0.6875l0 -1.765625l6.359375 -0.015625l0 5.578125q-1.453125 1.171875 -3.015625 1.765625q-1.5625 0.578125 -3.203125 0.578125q-2.21875 0 -4.03125 -0.9375q-1.796875 -0.953125 -2.71875 -2.75q-0.921875 -1.796875 -0.921875 -4.0q0 -2.203125 0.90625 -4.09375q0.921875 -1.90625 2.640625 -2.828125q1.734375 -0.921875 3.96875 -0.921875q1.640625 0 2.953125 0.53125q1.3125 0.515625 2.0625 1.46875q0.75 0.9375 1.140625 2.453125l-1.796875 0.484375q-0.34375 -1.140625 -0.84375 -1.796875q-0.5 -0.65625 -1.4375 -1.046875q-0.921875 -0.40625 -2.0625 -0.40625q-1.359375 0 -2.359375 0.421875q-1.0 0.421875 -1.609375 1.09375q-0.609375 0.671875 -0.9375 1.484375q-0.578125 1.390625 -0.578125 3.03125q0 2.0 0.6875 3.359375q0.6875 1.359375 2.015625 2.015625q1.328125 0.65625 2.8125 0.65625q1.296875 0 2.515625 -0.5q1.234375 -0.5 1.875 -1.0625l0 -2.796875l-4.421875 0zm8.949081 -1.4375q0 -3.734375 2.0 -5.84375q2.015625 -2.125 5.203125 -2.125q2.078125 0 3.75 1.0q1.671875 0.984375 2.546875 2.765625q0.875 1.78125 0.875 4.03125q0 2.296875 -0.921875 4.109375q-0.921875 1.796875 -2.625 2.71875q-1.6875 0.921875 -3.640625 0.921875q-2.125 0 -3.796875 -1.015625q-1.671875 -1.03125 -2.53125 -2.796875q-0.859375 -1.78125 -0.859375 -3.765625zm2.046875 0.03125q0 2.71875 1.453125 4.28125q1.46875 1.5625 3.671875 1.5625q2.25 0 3.703125 -1.578125q1.453125 -1.578125 1.453125 -4.46875q0 -1.84375 -0.625 -3.203125q-0.625 -1.375 -1.828125 -2.125q-1.1875 -0.765625 -2.671875 -0.765625q-2.109375 0 -3.640625 1.453125q-1.515625 1.453125 -1.515625 4.84375zm24.636581 0.71875l-9.953125 4.265625l0 -1.84375l7.875 -3.265625l-7.875 -3.25l0 -1.828125l9.953125 4.203125l0 1.71875z" fill-rule="nonzero"></path><path fill="#000000" fill-opacity="0.0" d="m444.52896 425.1399l115.74802 0l0 46.204742l-115.74802 0z" fill-rule="nonzero"></path><path fill="#000000" d="m454.6852 448.04178l0 -1.71875l9.953125 -4.203125l0 1.828125l-7.90625 3.25l7.90625 3.265625l0 1.84375l-9.953125 -4.265625zm12.236542 1.75l1.875 -0.171875q0.140625 1.140625 0.625 1.859375q0.484375 0.71875 1.515625 1.171875q1.03125 0.4375 2.3125 0.4375q1.125 0 2.0 -0.328125q0.875 -0.34375 1.296875 -0.9375q0.4375 -0.59375 0.4375 -1.28125q0 -0.703125 -0.421875 -1.234375q-0.40625 -0.53125 -1.34375 -0.890625q-0.609375 -0.234375 -2.6875 -0.734375q-2.0625 -0.5 -2.890625 -0.9375q-1.078125 -0.5625 -1.609375 -1.390625q-0.53125 -0.84375 -0.53125 -1.875q0 -1.140625 0.640625 -2.125q0.65625 -1.0 1.890625 -1.5q1.25 -0.515625 2.765625 -0.515625q1.671875 0 2.9375 0.53125q1.28125 0.53125 1.96875 1.578125q0.6875 1.046875 0.734375 2.375l-1.90625 0.140625q-0.15625 -1.421875 -1.046875 -2.140625q-0.875 -0.734375 -2.609375 -0.734375q-1.796875 0 -2.625 0.65625q-0.828125 0.65625 -0.828125 1.59375q0 0.8125 0.578125 1.328125q0.578125 0.53125 3.0 1.078125q2.421875 0.546875 3.328125 0.953125q1.3125 0.609375 1.9375 1.546875q0.625 0.921875 0.625 2.125q0 1.203125 -0.6875 2.265625q-0.6875 1.0625 -1.96875 1.65625q-1.28125 0.578125 -2.890625 0.578125q-2.046875 0 -3.4375 -0.59375q-1.375 -0.59375 -2.15625 -1.78125q-0.78125 -1.203125 -0.828125 -2.703125zm18.725708 4.828125l0 -13.265625l-4.9375 0l0 -1.765625l11.90625 0l0 1.765625l-4.96875 0l0 13.265625l-2.0 0zm8.606201 -7.328125q0 -3.734375 2.0 -5.84375q2.015625 -2.125 5.203125 -2.125q2.078125 0 3.75 1.0q1.671875 0.984375 2.546875 2.765625q0.875 1.78125 0.875 4.03125q0 2.296875 -0.921875 4.109375q-0.921875 1.796875 -2.625 2.71875q-1.6875 0.921875 -3.640625 0.921875q-2.125 0 -3.796875 -1.015625q-1.671875 -1.03125 -2.53125 -2.796875q-0.859375 -1.78125 -0.859375 -3.765625zm2.046875 0.03125q0 2.71875 1.453125 4.28125q1.46875 1.5625 3.671875 1.5625q2.25 0 3.703125 -1.578125q1.453125 -1.578125 1.453125 -4.46875q0 -1.84375 -0.625 -3.203125q-0.625 -1.375 -1.828125 -2.125q-1.1875 -0.765625 -2.671875 -0.765625q-2.109375 0 -3.640625 1.453125q-1.515625 1.453125 -1.515625 4.84375zm15.152191 7.296875l0 -15.03125l5.6719055 0q1.484375 0 2.28125 0.140625q1.109375 0.1875 1.859375 0.703125q0.75 0.515625 1.203125 1.453125q0.453125 0.9375 0.453125 2.046875q0 1.921875 -1.21875 3.25q-1.21875 1.328125 -4.40625 1.328125l-3.859375 0l0 6.109375l-1.9844055 0zm1.9844055 -7.890625l3.890625 0q1.921875 0 2.734375 -0.71875q0.8125 -0.71875 0.8125 -2.015625q0 -0.9375 -0.484375 -1.609375q-0.46875 -0.671875 -1.25 -0.890625q-0.5 -0.140625 -1.859375 -0.140625l-3.84375 0l0 5.375zm21.725647 1.3125l-9.953125 4.265625l0 -1.84375l7.875 -3.265625l-7.875 -3.25l0 -1.828125l9.953125 4.203125l0 1.71875z" fill-rule="nonzero"></path><path fill="#ea9999" d="m53.243465 216.59268l0 0c0 -4.628998 3.7525482 -8.381546 8.38155 -8.381546l33.5252 0l0 0c2.2229233 0 4.354805 0.88305664 5.926651 2.454895c1.571846 1.5718536 2.4549026 3.70372 2.4549026 5.926651l0 95.64035c0 4.6290283 -3.7525482 8.381561 -8.381554 8.381561l-33.5252 0c-4.6290016 0 -8.38155 -3.752533 -8.38155 -8.381561z" fill-rule="nonzero"></path><path stroke="#666666" stroke-width="1.0" stroke-linejoin="round" stroke-linecap="butt" d="m53.243465 216.59268l0 0c0 -4.628998 3.7525482 -8.381546 8.38155 -8.381546l33.5252 0l0 0c2.2229233 0 4.354805 0.88305664 5.926651 2.454895c1.571846 1.5718536 2.4549026 3.70372 2.4549026 5.926651l0 95.64035c0 4.6290283 -3.7525482 8.381561 -8.381554 8.381561l-33.5252 0c-4.6290016 0 -8.38155 -3.752533 -8.38155 -8.381561z" fill-rule="nonzero"></path><path fill="#000000" fill-opacity="0.0" d="m103.53177 264.41287l34.330704 0" fill-rule="nonzero"></path><path stroke="#666666" stroke-width="1.0" stroke-linejoin="round" stroke-linecap="butt" d="m103.53176 264.41287l28.330711 0" fill-rule="evenodd"></path><path fill="#666666" stroke="#666666" stroke-width="1.0" stroke-linecap="butt" d="m131.86247 266.0646l4.538101 -1.6517334l-4.538101 -1.6517334z" fill-rule="evenodd"></path><path fill="#000000" fill-opacity="0.0" d="m78.38762 357.54715l0 -36.932556" fill-rule="nonzero"></path><path stroke="#666666" stroke-width="1.0" stroke-linejoin="round" stroke-linecap="butt" d="m78.38762 357.54715l0 -30.932556" fill-rule="evenodd"></path><path fill="#666666" stroke="#666666" stroke-width="1.0" stroke-linecap="butt" d="m80.039345 326.6146l-1.6517258 -4.538086l-1.6517334 4.538086z" fill-rule="evenodd"></path><path fill="#ea9999" d="m135.75241 216.59268l0 0c0 -4.628998 3.7525482 -8.381546 8.381561 -8.381546l33.525192 0l0 0c2.222931 0 4.3548126 0.88305664 5.926651 2.454895c1.5718536 1.5718536 2.4549103 3.70372 2.4549103 5.926651l0 95.64035c0 4.6290283 -3.7525635 8.381561 -8.381561 8.381561l-33.525192 0c-4.629013 0 -8.381561 -3.752533 -8.381561 -8.381561z" fill-rule="nonzero"></path><path stroke="#666666" stroke-width="1.0" stroke-linejoin="round" stroke-linecap="butt" d="m135.75241 216.59268l0 0c0 -4.628998 3.7525482 -8.381546 8.381561 -8.381546l33.525192 0l0 0c2.222931 0 4.3548126 0.88305664 5.926651 2.454895c1.5718536 1.5718536 2.4549103 3.70372 2.4549103 5.926651l0 95.64035c0 4.6290283 -3.7525635 8.381561 -8.381561 8.381561l-33.525192 0c-4.629013 0 -8.381561 -3.752533 -8.381561 -8.381561z" fill-rule="nonzero"></path><path fill="#000000" fill-opacity="0.0" d="m186.04073 264.41287l34.330704 0" fill-rule="nonzero"></path><path stroke="#666666" stroke-width="1.0" stroke-linejoin="round" stroke-linecap="butt" d="m186.04073 264.41287l28.330704 0" fill-rule="evenodd"></path><path fill="#666666" stroke="#666666" stroke-width="1.0" stroke-linecap="butt" d="m214.37143 266.0646l4.538101 -1.6517334l-4.538101 -1.6517334z" fill-rule="evenodd"></path><path fill="#000000" fill-opacity="0.0" d="m160.89656 357.54715l0 -36.932556" fill-rule="nonzero"></path><path stroke="#666666" stroke-width="1.0" stroke-linejoin="round" stroke-linecap="butt" d="m160.89658 357.54715l0 -30.932556" fill-rule="evenodd"></path><path fill="#666666" stroke="#666666" stroke-width="1.0" stroke-linecap="butt" d="m162.54831 326.6146l-1.6517334 -4.538086l-1.6517334 4.538086z" fill-rule="evenodd"></path><path fill="#ea9999" d="m218.26137 216.59268l0 0c0 -4.628998 3.7525482 -8.381546 8.381546 -8.381546l33.525208 0l0 0c2.222931 0 4.3547974 0.88305664 5.9266357 2.454895c1.5718689 1.5718536 2.4549255 3.70372 2.4549255 5.926651l0 95.64035c0 4.6290283 -3.7525635 8.381561 -8.381561 8.381561l-33.525208 0c-4.628998 0 -8.381546 -3.752533 -8.381546 -8.381561z" fill-rule="nonzero"></path><path stroke="#666666" stroke-width="1.0" stroke-linejoin="round" stroke-linecap="butt" d="m218.26137 216.59268l0 0c0 -4.628998 3.7525482 -8.381546 8.381546 -8.381546l33.525208 0l0 0c2.222931 0 4.3547974 0.88305664 5.9266357 2.454895c1.5718689 1.5718536 2.4549255 3.70372 2.4549255 5.926651l0 95.64035c0 4.6290283 -3.7525635 8.381561 -8.381561 8.381561l-33.525208 0c-4.628998 0 -8.381546 -3.752533 -8.381546 -8.381561z" fill-rule="nonzero"></path><path fill="#000000" fill-opacity="0.0" d="m268.54968 264.41287l34.33069 0" fill-rule="nonzero"></path><path stroke="#666666" stroke-width="1.0" stroke-linejoin="round" stroke-linecap="butt" d="m268.54965 264.41287l28.330719 0" fill-rule="evenodd"></path><path fill="#666666" stroke="#666666" stroke-width="1.0" stroke-linecap="butt" d="m296.88037 266.0646l4.538086 -1.6517334l-4.538086 -1.6517334z" fill-rule="evenodd"></path><path fill="#000000" fill-opacity="0.0" d="m243.40552 357.54715l0 -36.932556" fill-rule="nonzero"></path><path stroke="#666666" stroke-width="1.0" stroke-linejoin="round" stroke-linecap="butt" d="m243.40552 357.54715l0 -30.932556" fill-rule="evenodd"></path><path fill="#666666" stroke="#666666" stroke-width="1.0" stroke-linecap="butt" d="m245.05725 326.6146l-1.6517334 -4.538086l-1.6517334 4.538086z" fill-rule="evenodd"></path><path fill="#ea9999" d="m300.77032 216.59268l0 0c0 -4.628998 3.752533 -8.381546 8.381531 -8.381546l33.525208 0l0 0c2.222931 0 4.3547974 0.88305664 5.9266663 2.454895c1.5718384 1.5718536 2.454895 3.70372 2.454895 5.926651l0 95.64035c0 4.6290283 -3.7525635 8.381561 -8.381561 8.381561l-33.525208 0c-4.628998 0 -8.381531 -3.752533 -8.381531 -8.381561z" fill-rule="nonzero"></path><path stroke="#666666" stroke-width="1.0" stroke-linejoin="round" stroke-linecap="butt" d="m300.77032 216.59268l0 0c0 -4.628998 3.752533 -8.381546 8.381531 -8.381546l33.525208 0l0 0c2.222931 0 4.3547974 0.88305664 5.9266663 2.454895c1.5718384 1.5718536 2.454895 3.70372 2.454895 5.926651l0 95.64035c0 4.6290283 -3.7525635 8.381561 -8.381561 8.381561l-33.525208 0c-4.628998 0 -8.381531 -3.752533 -8.381531 -8.381561z" fill-rule="nonzero"></path><path fill="#000000" fill-opacity="0.0" d="m351.05862 264.41287l34.33072 0" fill-rule="nonzero"></path><path stroke="#666666" stroke-width="1.0" stroke-linejoin="round" stroke-linecap="butt" d="m351.0586 264.41287l28.330719 0" fill-rule="evenodd"></path><path fill="#666666" stroke="#666666" stroke-width="1.0" stroke-linecap="butt" d="m379.3893 266.0646l4.538086 -1.6517334l-4.538086 -1.6517334z" fill-rule="evenodd"></path><path fill="#000000" fill-opacity="0.0" d="m325.91446 357.54715l0 -36.932556" fill-rule="nonzero"></path><path stroke="#666666" stroke-width="1.0" stroke-linejoin="round" stroke-linecap="butt" d="m325.91446 357.54715l0 -30.932556" fill-rule="evenodd"></path><path fill="#666666" stroke="#666666" stroke-width="1.0" stroke-linecap="butt" d="m327.5662 326.6146l-1.6517334 -4.538086l-1.6517334 4.538086z" fill-rule="evenodd"></path><path fill="#ea9999" d="m383.27927 216.59268l0 0c0 -4.628998 3.7525635 -8.381546 8.381561 -8.381546l33.525208 0l0 0c2.2229004 0 4.3547974 0.88305664 5.9266357 2.454895c1.5718384 1.5718536 2.454895 3.70372 2.454895 5.926651l0 95.64035c0 4.6290283 -3.752533 8.381561 -8.381531 8.381561l-33.525208 0c-4.628998 0 -8.381561 -3.752533 -8.381561 -8.381561z" fill-rule="nonzero"></path><path stroke="#666666" stroke-width="1.0" stroke-linejoin="round" stroke-linecap="butt" d="m383.27927 216.59268l0 0c0 -4.628998 3.7525635 -8.381546 8.381561 -8.381546l33.525208 0l0 0c2.2229004 0 4.3547974 0.88305664 5.9266357 2.454895c1.5718384 1.5718536 2.454895 3.70372 2.454895 5.926651l0 95.64035c0 4.6290283 -3.752533 8.381561 -8.381531 8.381561l-33.525208 0c-4.628998 0 -8.381561 -3.752533 -8.381561 -8.381561z" fill-rule="nonzero"></path><path fill="#000000" fill-opacity="0.0" d="m433.56757 264.41287l34.33072 0" fill-rule="nonzero"></path><path stroke="#666666" stroke-width="1.0" stroke-linejoin="round" stroke-linecap="butt" d="m433.5676 264.41287l28.330688 0" fill-rule="evenodd"></path><path fill="#666666" stroke="#666666" stroke-width="1.0" stroke-linecap="butt" d="m461.8983 266.0646l4.5381165 -1.6517334l-4.5381165 -1.6517334z" fill-rule="evenodd"></path><path fill="#000000" fill-opacity="0.0" d="m408.42343 357.54715l0 -36.932556" fill-rule="nonzero"></path><path stroke="#666666" stroke-width="1.0" stroke-linejoin="round" stroke-linecap="butt" d="m408.42343 357.54715l0 -30.932556" fill-rule="evenodd"></path><path fill="#666666" stroke="#666666" stroke-width="1.0" stroke-linecap="butt" d="m410.07516 326.6146l-1.6517334 -4.538086l-1.6517334 4.538086z" fill-rule="evenodd"></path><path fill="#ea9999" d="m465.7882 216.59268l0 0c0 -4.628998 3.7525635 -8.381546 8.381561 -8.381546l33.525208 0l0 0c2.222931 0 4.354828 0.88305664 5.9266663 2.454895c1.5718384 1.5718536 2.454895 3.70372 2.454895 5.926651l0 95.64035c0 4.6290283 -3.7525635 8.381561 -8.381561 8.381561l-33.525208 0c-4.628998 0 -8.381561 -3.752533 -8.381561 -8.381561z" fill-rule="nonzero"></path><path stroke="#666666" stroke-width="1.0" stroke-linejoin="round" stroke-linecap="butt" d="m465.7882 216.59268l0 0c0 -4.628998 3.7525635 -8.381546 8.381561 -8.381546l33.525208 0l0 0c2.222931 0 4.354828 0.88305664 5.9266663 2.454895c1.5718384 1.5718536 2.454895 3.70372 2.454895 5.926651l0 95.64035c0 4.6290283 -3.7525635 8.381561 -8.381561 8.381561l-33.525208 0c-4.628998 0 -8.381561 -3.752533 -8.381561 -8.381561z" fill-rule="nonzero"></path><path fill="#000000" fill-opacity="0.0" d="m490.93237 357.54715l0 -36.932556" fill-rule="nonzero"></path><path stroke="#666666" stroke-width="1.0" stroke-linejoin="round" stroke-linecap="butt" d="m490.93237 357.54715l0 -30.932556" fill-rule="evenodd"></path><path fill="#666666" stroke="#666666" stroke-width="1.0" stroke-linecap="butt" d="m492.5841 326.6146l-1.6517334 -4.538086l-1.6517334 4.538086z" fill-rule="evenodd"></path><path fill="#000000" fill-opacity="0.0" d="m228.29506 425.1399l34.330704 0l0 46.204742l-34.330704 0z" fill-rule="nonzero"></path><path fill="#000000" d="m237.79506 451.51053l2.890625 -0.4375q0.171875 0.84375 0.734375 1.28125q0.578125 0.4375 1.59375 0.4375q1.109375 0 1.671875 -0.421875q0.375 -0.28125 0.375 -0.765625q0 -0.328125 -0.203125 -0.546875q-0.203125 -0.203125 -0.953125 -0.375q-3.484375 -0.765625 -4.421875 -1.40625q-1.296875 -0.875 -1.296875 -2.453125q0 -1.40625 1.109375 -2.375q1.125 -0.96875 3.46875 -0.96875q2.25 0 3.328125 0.734375q1.09375 0.71875 1.5 2.15625l-2.71875 0.5q-0.171875 -0.640625 -0.671875 -0.96875q-0.484375 -0.34375 -1.375 -0.34375q-1.140625 0 -1.640625 0.3125q-0.328125 0.234375 -0.328125 0.59375q0 0.296875 0.296875 0.515625q0.390625 0.28125 2.6875 0.8125q2.296875 0.515625 3.21875 1.28125q0.90625 0.765625 0.90625 2.140625q0 1.5 -1.265625 2.578125q-1.25 1.078125 -3.6875 1.078125q-2.234375 0 -3.53125 -0.90625q-1.296875 -0.90625 -1.6875 -2.453125z" fill-rule="nonzero"></path><path fill="#000000" fill-opacity="0.0" d="m308.74887 425.1399l34.33072 0l0 46.204742l-34.33072 0z" fill-rule="nonzero"></path><path fill="#000000" d="m318.24887 451.51053l2.890625 -0.4375q0.171875 0.84375 0.734375 1.28125q0.578125 0.4375 1.59375 0.4375q1.109375 0 1.671875 -0.421875q0.375 -0.28125 0.375 -0.765625q0 -0.328125 -0.203125 -0.546875q-0.203125 -0.203125 -0.953125 -0.375q-3.484375 -0.765625 -4.421875 -1.40625q-1.296875 -0.875 -1.296875 -2.453125q0 -1.40625 1.109375 -2.375q1.125 -0.96875 3.46875 -0.96875q2.25 0 3.328125 0.734375q1.09375 0.71875 1.5 2.15625l-2.71875 0.5q-0.171875 -0.640625 -0.671875 -0.96875q-0.484375 -0.34375 -1.375 -0.34375q-1.140625 0 -1.640625 0.3125q-0.328125 0.234375 -0.328125 0.59375q0 0.296875 0.296875 0.515625q0.390625 0.28125 2.6875 0.8125q2.296875 0.515625 3.21875 1.28125q0.90625 0.765625 0.90625 2.140625q0 1.5 -1.265625 2.578125q-1.25 1.078125 -3.6875 1.078125q-2.234375 0 -3.53125 -0.90625q-1.296875 -0.90625 -1.6875 -2.453125z" fill-rule="nonzero"></path><path fill="#000000" fill-opacity="0.0" d="m395.36676 425.1399l41.795288 0l0 46.204742l-41.795288 0z" fill-rule="nonzero"></path><path fill="#000000" d="m407.0074 450.7449l-0.75 -7.625l0 -3.53125l3.109375 0l0 3.53125l-0.734375 7.625l-1.625 0zm-0.625 3.875l0 -2.875l2.875 0l0 2.875l-2.875 0z" fill-rule="nonzero"></path><path fill="#000000" fill-opacity="0.0" d="m427.1341 34.835873l142.32043 0l0 30.792881l-142.32043 0z" fill-rule="nonzero"></path><path fill="#000000" d="m437.71222 71.641495l0 -17.218746l1.921875 0l0 1.625q0.6875 -0.953125 1.53125 -1.421875q0.859375 -0.484375 2.078125 -0.484375q1.59375 0 2.8125 0.828125q1.21875 0.8125 1.84375 2.3125q0.625 1.5 0.625 3.28125q0 1.90625 -0.6875 3.4374962q-0.6875 1.53125 -2.0 2.34375q-1.296875 0.8125 -2.734375 0.8125q-1.0625 0 -1.90625 -0.4375q-0.828125 -0.453125 -1.375 -1.140625l0 6.0625l-2.109375 0zm1.921875 -10.921871q0 2.40625 0.96875 3.5624962q0.96875 1.140625 2.359375 1.140625q1.40625 0 2.40625 -1.1875q1.0 -1.1874962 1.0 -3.6874962q0 -2.375 -0.984375 -3.5625q-0.96875 -1.1875 -2.328125 -1.1875q-1.359375 0 -2.390625 1.265625q-1.03125 1.25 -1.03125 3.65625zm11.410156 6.156246l0 -12.453121l1.890625 0l0 1.890625q0.734375 -1.328125 1.34375 -1.75q0.625 -0.421875 1.359375 -0.421875q1.0625 0 2.171875 0.6875l-0.734375 1.953125q-0.765625 -0.453125 -1.546875 -0.453125q-0.6875 0 -1.25 0.421875q-0.546875 0.40625 -0.78125 1.140625q-0.34375 1.125 -0.34375 2.46875l0 6.515621l-2.109375 0zm7.2265625 -6.218746q0 -3.46875 1.921875 -5.125q1.609375 -1.390625 3.921875 -1.390625q2.5625 0 4.1875 1.6875q1.625 1.6875 1.625 4.640625q0 2.40625 -0.71875 3.7812462q-0.71875 1.375 -2.09375 2.140625q-1.375 0.765625 -3.0 0.765625q-2.625 0 -4.234375 -1.671875q-1.609375 -1.6874962 -1.609375 -4.828121zm2.171875 0q0 2.390625 1.03125 3.5781212q1.046875 1.1875 2.640625 1.1875q1.5625 0 2.609375 -1.1875q1.046875 -1.2031212 1.046875 -3.6562462q0 -2.3125 -1.0625 -3.5q-1.046875 -1.1875 -2.59375 -1.1875q-1.59375 0 -2.640625 1.1875q-1.03125 1.1875 -1.03125 3.578125zm11.957031 -8.515625l0 -2.453125l2.109375 0l0 2.453125l-2.109375 0zm-2.6875 19.562496l0.40625 -1.796875q0.625 0.171875 1.0 0.171875q0.640625 0 0.953125 -0.4375q0.328125 -0.421875 0.328125 -2.125l0 -13.093746l2.109375 0l0 13.140621q0 2.296875 -0.609375 3.1875q-0.75 1.171875 -2.53125 1.171875q-0.859375 0 -1.65625 -0.21875zm16.550781 -8.843746l2.171875 0.28125q-0.515625 1.9062462 -1.90625 2.9687462q-1.390625 1.046875 -3.5625 1.046875q-2.734375 0 -4.34375 -1.671875q-1.59375 -1.6874962 -1.59375 -4.734371q0 -3.140625 1.609375 -4.875q1.625 -1.734375 4.203125 -1.734375q2.5 0 4.078125 1.703125q1.59375 1.703125 1.59375 4.78125q0 0.1875 -0.015625 0.5625l-9.28125 0q0.109375 2.046875 1.15625 3.1406212q1.046875 1.09375 2.609375 1.09375q1.15625 0 1.96875 -0.609375q0.828125 -0.609375 1.3125 -1.9531212zm-6.9375 -3.40625l6.953125 0q-0.140625 -1.5625 -0.796875 -2.359375q-1.0 -1.21875 -2.609375 -1.21875q-1.453125 0 -2.453125 0.984375q-0.984375 0.96875 -1.09375 2.59375zm19.878906 2.859375l2.078125 0.265625q-0.34375 2.1562462 -1.75 3.3749962q-1.390625 1.203125 -3.4375 1.203125q-2.546875 0 -4.109375 -1.671875q-1.546875 -1.6718712 -1.546875 -4.781246q0 -2.015625 0.671875 -3.53125q0.671875 -1.515625 2.03125 -2.265625q1.359375 -0.765625 2.96875 -0.765625q2.03125 0 3.3125 1.03125q1.296875 1.03125 1.65625 2.90625l-2.046875 0.328125q-0.296875 -1.265625 -1.046875 -1.890625q-0.734375 -0.640625 -1.796875 -0.640625q-1.59375 0 -2.59375 1.15625q-0.984375 1.140625 -0.984375 3.609375q0 2.5 0.953125 3.6406212q0.96875 1.140625 2.515625 1.140625q1.234375 0 2.0625 -0.765625q0.84375 -0.7656212 1.0625 -2.3437462zm8.484375 2.6718712l0.3125 1.859375q-0.890625 0.203125 -1.59375 0.203125q-1.15625 0 -1.796875 -0.359375q-0.625 -0.375 -0.890625 -0.96875q-0.25 -0.59375 -0.25 -2.4843712l0 -7.171875l-1.546875 0l0 -1.640625l1.546875 0l0 -3.078125l2.09375 -1.265625l0 4.34375l2.125 0l0 1.640625l-2.125 0l0 7.28125q0 0.9062462 0.109375 1.1718712q0.125 0.25 0.375 0.40625q0.25 0.140625 0.71875 0.140625q0.34375 0 0.921875 -0.078125zm2.0742188 -12.859371l0 -2.4375l2.109375 0l0 2.4375l-2.109375 0zm0 14.749996l0 -12.453121l2.109375 0l0 12.453121l-2.109375 0zm4.5351562 -6.218746q0 -3.46875 1.921875 -5.125q1.609375 -1.390625 3.921875 -1.390625q2.5625 0 4.1875 1.6875q1.625 1.6875 1.625 4.640625q0 2.40625 -0.71875 3.7812462q-0.71875 1.375 -2.09375 2.140625q-1.375 0.765625 -3.0 0.765625q-2.625 0 -4.234375 -1.671875q-1.609375 -1.6874962 -1.609375 -4.828121zm2.171875 0q0 2.390625 1.03125 3.5781212q1.046875 1.1875 2.640625 1.1875q1.5625 0 2.609375 -1.1875q1.046875 -1.2031212 1.046875 -3.6562462q0 -2.3125 -1.0625 -3.5q-1.046875 -1.1875 -2.59375 -1.1875q-1.59375 0 -2.640625 1.1875q-1.03125 1.1875 -1.03125 3.578125zm11.957031 6.218746l0 -12.453121l1.90625 0l0 1.78125q1.375 -2.0625 3.953125 -2.0625q1.125 0 2.0625 0.40625q0.953125 0.40625 1.421875 1.0625q0.46875 0.65625 0.65625 1.5625q0.125 0.578125 0.125 2.046875l0 7.656246l-2.109375 0l0 -7.578121q0 -1.28125 -0.25 -1.921875q-0.25 -0.640625 -0.875 -1.015625q-0.625 -0.390625 -1.46875 -0.390625q-1.34375 0 -2.328125 0.859375q-0.984375 0.859375 -0.984375 3.25l0 6.796871l-2.109375 0zm12.503906 -3.7187462l2.09375 -0.328125q0.171875 1.2499962 0.96875 1.9218712q0.8125 0.671875 2.25 0.671875q1.453125 0 2.15625 -0.59375q0.703125 -0.59375 0.703125 -1.3906212q0 -0.71875 -0.625 -1.125q-0.421875 -0.28125 -2.15625 -0.71875q-2.3125 -0.578125 -3.21875 -1.0q-0.890625 -0.4375 -1.359375 -1.1875q-0.453125 -0.765625 -0.453125 -1.671875q0 -0.828125 0.375 -1.53125q0.390625 -0.71875 1.046875 -1.1875q0.484375 -0.359375 1.328125 -0.609375q0.859375 -0.265625 1.828125 -0.265625q1.46875 0 2.578125 0.421875q1.109375 0.421875 1.625 1.15625q0.53125 0.71875 0.734375 1.921875l-2.0625 0.28125q-0.140625 -0.96875 -0.8125 -1.5q-0.671875 -0.546875 -1.90625 -0.546875q-1.453125 0 -2.078125 0.484375q-0.625 0.484375 -0.625 1.125q0 0.40625 0.265625 0.734375q0.25 0.34375 0.8125 0.5625q0.3125 0.125 1.859375 0.546875q2.234375 0.59375 3.109375 0.984375q0.890625 0.375 1.390625 1.109375q0.515625 0.71875 0.515625 1.796875q0 1.0468712 -0.625 1.9843712q-0.609375 0.9375 -1.765625 1.453125q-1.15625 0.5 -2.625 0.5q-2.421875 0 -3.703125 -1.0q-1.265625 -1.015625 -1.625 -2.9999962z" fill-rule="nonzero"></path><path fill="#6d9eeb" d="m53.243465 365.9287l0 0c0 -4.628998 3.7525482 -8.381561 8.38155 -8.381561l33.5252 0l0 0c2.2229233 0 4.354805 0.88305664 5.926651 2.4549255c1.571846 1.5718384 2.4549026 3.7037048 2.4549026 5.9266357l0 36.22711c0 4.628998 -3.7525482 8.381531 -8.381554 8.381531l-33.5252 0c-4.6290016 0 -8.38155 -3.752533 -8.38155 -8.381531z" fill-rule="nonzero"></path><path stroke="#666666" stroke-width="1.0" stroke-linejoin="round" stroke-linecap="butt" d="m53.243465 365.9287l0 0c0 -4.628998 3.7525482 -8.381561 8.38155 -8.381561l33.5252 0l0 0c2.2229233 0 4.354805 0.88305664 5.926651 2.4549255c1.571846 1.5718384 2.4549026 3.7037048 2.4549026 5.9266357l0 36.22711c0 4.628998 -3.7525482 8.381531 -8.381554 8.381531l-33.5252 0c-4.6290016 0 -8.38155 -3.752533 -8.38155 -8.381531z" fill-rule="nonzero"></path><path fill="#6d9eeb" d="m135.75241 365.9287l0 0c0 -4.628998 3.7525482 -8.381561 8.381561 -8.381561l33.525192 0l0 0c2.222931 0 4.3548126 0.88305664 5.926651 2.4549255c1.5718536 1.5718384 2.4549103 3.7037048 2.4549103 5.9266357l0 36.22711c0 4.628998 -3.7525635 8.381531 -8.381561 8.381531l-33.525192 0c-4.629013 0 -8.381561 -3.752533 -8.381561 -8.381531z" fill-rule="nonzero"></path><path stroke="#666666" stroke-width="1.0" stroke-linejoin="round" stroke-linecap="butt" d="m135.75241 365.9287l0 0c0 -4.628998 3.7525482 -8.381561 8.381561 -8.381561l33.525192 0l0 0c2.222931 0 4.3548126 0.88305664 5.926651 2.4549255c1.5718536 1.5718384 2.4549103 3.7037048 2.4549103 5.9266357l0 36.22711c0 4.628998 -3.7525635 8.381531 -8.381561 8.381531l-33.525192 0c-4.629013 0 -8.381561 -3.752533 -8.381561 -8.381531z" fill-rule="nonzero"></path><path fill="#6d9eeb" d="m218.26137 365.9287l0 0c0 -4.628998 3.7525482 -8.381561 8.381546 -8.381561l33.525208 0l0 0c2.222931 0 4.3547974 0.88305664 5.9266357 2.4549255c1.5718689 1.5718384 2.4549255 3.7037048 2.4549255 5.9266357l0 36.22711c0 4.628998 -3.7525635 8.381531 -8.381561 8.381531l-33.525208 0c-4.628998 0 -8.381546 -3.752533 -8.381546 -8.381531z" fill-rule="nonzero"></path><path stroke="#666666" stroke-width="1.0" stroke-linejoin="round" stroke-linecap="butt" d="m218.26137 365.9287l0 0c0 -4.628998 3.7525482 -8.381561 8.381546 -8.381561l33.525208 0l0 0c2.222931 0 4.3547974 0.88305664 5.9266357 2.4549255c1.5718689 1.5718384 2.4549255 3.7037048 2.4549255 5.9266357l0 36.22711c0 4.628998 -3.7525635 8.381531 -8.381561 8.381531l-33.525208 0c-4.628998 0 -8.381546 -3.752533 -8.381546 -8.381531z" fill-rule="nonzero"></path><path fill="#6d9eeb" d="m300.77032 365.9287l0 0c0 -4.628998 3.752533 -8.381561 8.381531 -8.381561l33.525208 0l0 0c2.222931 0 4.3547974 0.88305664 5.9266663 2.4549255c1.5718384 1.5718384 2.454895 3.7037048 2.454895 5.9266357l0 36.22711c0 4.628998 -3.7525635 8.381531 -8.381561 8.381531l-33.525208 0c-4.628998 0 -8.381531 -3.752533 -8.381531 -8.381531z" fill-rule="nonzero"></path><path stroke="#666666" stroke-width="1.0" stroke-linejoin="round" stroke-linecap="butt" d="m300.77032 365.9287l0 0c0 -4.628998 3.752533 -8.381561 8.381531 -8.381561l33.525208 0l0 0c2.222931 0 4.3547974 0.88305664 5.9266663 2.4549255c1.5718384 1.5718384 2.454895 3.7037048 2.454895 5.9266357l0 36.22711c0 4.628998 -3.7525635 8.381531 -8.381561 8.381531l-33.525208 0c-4.628998 0 -8.381531 -3.752533 -8.381531 -8.381531z" fill-rule="nonzero"></path><path fill="#6d9eeb" d="m383.27927 365.9287l0 0c0 -4.628998 3.7525635 -8.381561 8.381561 -8.381561l33.525208 0l0 0c2.2229004 0 4.3547974 0.88305664 5.9266357 2.4549255c1.5718384 1.5718384 2.454895 3.7037048 2.454895 5.9266357l0 36.22711c0 4.628998 -3.752533 8.381531 -8.381531 8.381531l-33.525208 0c-4.628998 0 -8.381561 -3.752533 -8.381561 -8.381531z" fill-rule="nonzero"></path><path stroke="#666666" stroke-width="1.0" stroke-linejoin="round" stroke-linecap="butt" d="m383.27927 365.9287l0 0c0 -4.628998 3.7525635 -8.381561 8.381561 -8.381561l33.525208 0l0 0c2.2229004 0 4.3547974 0.88305664 5.9266357 2.4549255c1.5718384 1.5718384 2.454895 3.7037048 2.454895 5.9266357l0 36.22711c0 4.628998 -3.752533 8.381531 -8.381531 8.381531l-33.525208 0c-4.628998 0 -8.381561 -3.752533 -8.381561 -8.381531z" fill-rule="nonzero"></path><path fill="#6d9eeb" d="m465.7882 365.9287l0 0c0 -4.628998 3.7525635 -8.381561 8.381561 -8.381561l33.525208 0l0 0c2.222931 0 4.354828 0.88305664 5.9266663 2.4549255c1.5718384 1.5718384 2.454895 3.7037048 2.454895 5.9266357l0 36.22711c0 4.628998 -3.7525635 8.381531 -8.381561 8.381531l-33.525208 0c-4.628998 0 -8.381561 -3.752533 -8.381561 -8.381531z" fill-rule="nonzero"></path><path stroke="#666666" stroke-width="1.0" stroke-linejoin="round" stroke-linecap="butt" d="m465.7882 365.9287l0 0c0 -4.628998 3.7525635 -8.381561 8.381561 -8.381561l33.525208 0l0 0c2.222931 0 4.354828 0.88305664 5.9266663 2.4549255c1.5718384 1.5718384 2.454895 3.7037048 2.454895 5.9266357l0 36.22711c0 4.628998 -3.7525635 8.381531 -8.381561 8.381531l-33.525208 0c-4.628998 0 -8.381561 -3.752533 -8.381561 -8.381531z" fill-rule="nonzero"></path><path fill="#93c47d" d="m465.7882 125.06415l0 0c0 -4.6290054 3.7525635 -8.381554 8.381561 -8.381554l33.525208 0l0 0c2.222931 0 4.354828 0.88305664 5.9266663 2.4549026c1.5718384 1.571846 2.454895 3.7037277 2.454895 5.926651l0 36.227097c0 4.629013 -3.7525635 8.381561 -8.381561 8.381561l-33.525208 0c-4.628998 0 -8.381561 -3.7525482 -8.381561 -8.381561z" fill-rule="nonzero"></path><path stroke="#666666" stroke-width="1.0" stroke-linejoin="round" stroke-linecap="butt" d="m465.7882 125.06415l0 0c0 -4.6290054 3.7525635 -8.381554 8.381561 -8.381554l33.525208 0l0 0c2.222931 0 4.354828 0.88305664 5.9266663 2.4549026c1.5718384 1.571846 2.454895 3.7037277 2.454895 5.926651l0 36.227097c0 4.629013 -3.7525635 8.381561 -8.381561 8.381561l-33.525208 0c-4.628998 0 -8.381561 -3.7525482 -8.381561 -8.381561z" fill-rule="nonzero"></path><path fill="#000000" fill-opacity="0.0" d="m490.1419 116.682594l0.52697754 -36.932564" fill-rule="nonzero"></path><path stroke="#666666" stroke-width="1.0" stroke-linejoin="round" stroke-linecap="butt" d="m490.1419 116.6826l0.44137573 -30.933182" fill-rule="evenodd"></path><path fill="#666666" stroke="#666666" stroke-width="1.0" stroke-linecap="butt" d="m492.23483 85.77299l-1.5868225 -4.561203l-1.7163086 4.5140686z" fill-rule="evenodd"></path><path fill="#000000" fill-opacity="0.0" d="m325.91446 429.46414l0 -20.024841" fill-rule="nonzero"></path><path stroke="#666666" stroke-width="1.0" stroke-linejoin="round" stroke-linecap="butt" d="m325.91446 429.4641l0 -14.024811" fill-rule="evenodd"></path><path fill="#666666" stroke="#666666" stroke-width="1.0" stroke-linecap="butt" d="m327.5662 415.4393l-1.6517334 -4.538086l-1.6517334 4.538086z" fill-rule="evenodd"></path><path fill="#000000" fill-opacity="0.0" d="m78.38762 429.46414l0 -20.024841" fill-rule="nonzero"></path><path stroke="#666666" stroke-width="1.0" stroke-linejoin="round" stroke-linecap="butt" d="m78.38762 429.4641l0 -14.024811" fill-rule="evenodd"></path><path fill="#666666" stroke="#666666" stroke-width="1.0" stroke-linecap="butt" d="m80.039345 415.4393l-1.6517258 -4.538086l-1.6517334 4.538086z" fill-rule="evenodd"></path><path fill="#000000" fill-opacity="0.0" d="m243.4029 429.46414l0 -20.031525" fill-rule="nonzero"></path><path stroke="#666666" stroke-width="1.0" stroke-linejoin="round" stroke-linecap="butt" d="m243.4029 429.4641l0 -14.031494" fill-rule="evenodd"></path><path fill="#666666" stroke="#666666" stroke-width="1.0" stroke-linecap="butt" d="m245.05463 415.43262l-1.6517334 -4.538086l-1.6517334 4.538086z" fill-rule="evenodd"></path><path fill="#000000" fill-opacity="0.0" d="m160.89656 429.85376l0 -20.02481" fill-rule="nonzero"></path><path stroke="#666666" stroke-width="1.0" stroke-linejoin="round" stroke-linecap="butt" d="m160.89658 429.85376l0 -14.024811" fill-rule="evenodd"></path><path fill="#666666" stroke="#666666" stroke-width="1.0" stroke-linecap="butt" d="m162.54831 415.82895l-1.6517334 -4.5381165l-1.6517334 4.5381165z" fill-rule="evenodd"></path><path fill="#000000" fill-opacity="0.0" d="m408.42343 429.46414l0 -20.024841" fill-rule="nonzero"></path><path stroke="#666666" stroke-width="1.0" stroke-linejoin="round" stroke-linecap="butt" d="m408.42343 429.4641l0 -14.024811" fill-rule="evenodd"></path><path fill="#666666" stroke="#666666" stroke-width="1.0" stroke-linecap="butt" d="m410.07516 415.4393l-1.6517334 -4.538086l-1.6517334 4.538086z" fill-rule="evenodd"></path><path fill="#000000" fill-opacity="0.0" d="m490.4054 432.16794l0 -20.02481" fill-rule="nonzero"></path><path stroke="#666666" stroke-width="1.0" stroke-linejoin="round" stroke-linecap="butt" d="m490.4054 432.16794l0 -14.024811" fill-rule="evenodd"></path><path fill="#666666" stroke="#666666" stroke-width="1.0" stroke-linecap="butt" d="m492.05713 418.14313l-1.6517334 -4.538086l-1.6517334 4.538086z" fill-rule="evenodd"></path><path fill="#6d9eeb" d="m634.01764 366.08023l0 0c0 -4.628998 3.7525024 -8.381531 8.381531 -8.381531l33.525208 0l0 0c2.2229004 0 4.3547974 0.88305664 5.9266357 2.454895c1.5718384 1.5718384 2.454895 3.7037048 2.454895 5.9266357l0 36.22711c0 4.628998 -3.7525635 8.381561 -8.381531 8.381561l-33.525208 0c-4.6290283 0 -8.381531 -3.7525635 -8.381531 -8.381561z" fill-rule="nonzero"></path><path stroke="#666666" stroke-width="1.0" stroke-linejoin="round" stroke-linecap="butt" d="m634.01764 366.08023l0 0c0 -4.628998 3.7525024 -8.381531 8.381531 -8.381531l33.525208 0l0 0c2.2229004 0 4.3547974 0.88305664 5.9266357 2.454895c1.5718384 1.5718384 2.454895 3.7037048 2.454895 5.9266357l0 36.22711c0 4.628998 -3.7525635 8.381561 -8.381531 8.381561l-33.525208 0c-4.6290283 0 -8.381531 -3.7525635 -8.381531 -8.381561z" fill-rule="nonzero"></path><path fill="#000000" fill-opacity="0.0" d="m684.3059 245.15494l275.68506 0l0 103.46457l-275.68506 0z" fill-rule="nonzero"></path><path fill="#000000" d="m704.39966 265.7912l-9.921875 0l0 -1.71875l9.921875 0l0 1.71875zm0 4.5625l-9.921875 0l0 -1.71875l9.921875 0l0 1.71875zm8.81842 4.28125l0 -15.03125l2.0 0l0 13.25l7.40625 0l0 1.78125l-9.40625 0zm11.267944 -4.828125l1.875 -0.171875q0.140625 1.140625 0.625 1.859375q0.484375 0.71875 1.515625 1.171875q1.03125 0.4375 2.3125 0.4375q1.125 0 2.0 -0.328125q0.875 -0.34375 1.296875 -0.9375q0.4375 -0.59375 0.4375 -1.28125q0 -0.703125 -0.421875 -1.234375q-0.40625 -0.53125 -1.34375 -0.890625q-0.609375 -0.234375 -2.6875 -0.734375q-2.0625 -0.5 -2.890625 -0.9375q-1.078125 -0.5625 -1.609375 -1.390625q-0.53125 -0.84375 -0.53125 -1.875q0 -1.140625 0.640625 -2.125q0.65625 -1.0 1.890625 -1.5q1.25 -0.515625 2.765625 -0.515625q1.671875 0 2.9375 0.53125q1.28125 0.53125 1.96875 1.578125q0.6875 1.046875 0.734375 2.375l-1.90625 0.140625q-0.15625 -1.421875 -1.046875 -2.140625q-0.875 -0.734375 -2.609375 -0.734375q-1.796875 0 -2.625 0.65625q-0.828125 0.65625 -0.828125 1.59375q0 0.8125 0.578125 1.328125q0.578125 0.53125 3.0 1.078125q2.421875 0.546875 3.328125 0.953125q1.3125 0.609375 1.9375 1.546875q0.625 0.921875 0.625 2.125q0 1.203125 -0.6875 2.265625q-0.6875 1.0625 -1.96875 1.65625q-1.28125 0.578125 -2.890625 0.578125q-2.046875 0 -3.4375 -0.59375q-1.375 -0.59375 -2.15625 -1.78125q-0.78125 -1.203125 -0.828125 -2.703125zm18.725708 4.828125l0 -13.265625l-4.9375 0l0 -1.765625l11.90625 0l0 1.765625l-4.96875 0l0 13.265625l-2.0 0zm9.153076 0l0 -15.03125l2.984375 0l3.5625 10.640625q0.5 1.484375 0.71875 2.234375q0.25 -0.828125 0.796875 -2.421875l3.609375 -10.453125l2.671875 0l0 15.03125l-1.921875 0l0 -12.578125l-4.359375 12.578125l-1.796875 0l-4.359375 -12.796875l0 12.796875l-1.90625 0zm30.614014 -3.984375l1.828125 0.234375q-0.296875 1.875 -1.53125 2.9375q-1.21875 1.0625 -3.015625 1.0625q-2.234375 0 -3.59375 -1.453125q-1.34375 -1.46875 -1.34375 -4.203125q0 -1.765625 0.578125 -3.078125q0.578125 -1.328125 1.765625 -1.984375q1.203125 -0.671875 2.609375 -0.671875q1.78125 0 2.90625 0.90625q1.125 0.890625 1.4375 2.546875l-1.78125 0.28125q-0.265625 -1.109375 -0.921875 -1.65625q-0.640625 -0.5625 -1.5625 -0.5625q-1.40625 0 -2.28125 1.0q-0.859375 1.0 -0.859375 3.171875q0 2.1875 0.84375 3.1875q0.84375 1.0 2.1875 1.0q1.09375 0 1.8125 -0.671875q0.734375 -0.671875 0.921875 -2.046875zm11.0234375 0.484375l1.90625 0.234375q-0.453125 1.671875 -1.671875 2.59375q-1.21875 0.921875 -3.125 0.921875q-2.390625 0 -3.796875 -1.46875q-1.390625 -1.484375 -1.390625 -4.140625q0 -2.734375 1.40625 -4.25q1.421875 -1.53125 3.6875 -1.53125q2.1875 0 3.5625 1.5q1.390625 1.484375 1.390625 4.171875q0 0.171875 -0.015625 0.5l-8.125 0q0.109375 1.796875 1.015625 2.75q0.921875 0.953125 2.28125 0.953125q1.015625 0 1.734375 -0.53125q0.71875 -0.546875 1.140625 -1.703125zm-6.0625 -2.984375l6.078125 0q-0.125 -1.375 -0.703125 -2.0625q-0.875 -1.078125 -2.28125 -1.078125q-1.265625 0 -2.140625 0.859375q-0.859375 0.84375 -0.953125 2.28125zm10.424194 6.484375l0 -15.03125l1.84375 0l0 15.03125l-1.84375 0zm4.7384644 0l0 -15.03125l1.84375 0l0 15.03125l-1.84375 0z" fill-rule="nonzero"></path><path fill="#93c47d" d="m634.01764 128.34454l0 0c0 -4.628998 3.7525024 -8.381546 8.381531 -8.381546l33.525208 0l0 0c2.2229004 0 4.3547974 0.88305664 5.9266357 2.4549026c1.5718384 1.571846 2.454895 3.7037277 2.454895 5.9266434l0 36.22711c0 4.628998 -3.7525635 8.381546 -8.381531 8.381546l-33.525208 0c-4.6290283 0 -8.381531 -3.7525482 -8.381531 -8.381546z" fill-rule="nonzero"></path><path stroke="#666666" stroke-width="1.0" stroke-linejoin="round" stroke-linecap="butt" d="m634.01764 128.34454l0 0c0 -4.628998 3.7525024 -8.381546 8.381531 -8.381546l33.525208 0l0 0c2.2229004 0 4.3547974 0.88305664 5.9266357 2.4549026c1.5718384 1.571846 2.454895 3.7037277 2.454895 5.9266434l0 36.22711c0 4.628998 -3.7525635 8.381546 -8.381531 8.381546l-33.525208 0c-4.6290283 0 -8.381531 -3.7525482 -8.381531 -8.381546z" fill-rule="nonzero"></path><path fill="#000000" fill-opacity="0.0" d="m684.3059 125.83252l275.68506 0l0 103.46457l-275.68506 0z" fill-rule="nonzero"></path><path fill="#000000" d="m704.39966 146.46877l-9.921875 0l0 -1.71875l9.921875 0l0 1.71875zm0 4.5625l-9.921875 0l0 -1.71875l9.921875 0l0 1.71875zm8.677795 8.453125l0 -15.0625l1.671875 0l0 1.421875q0.59375 -0.84375 1.34375 -1.25q0.75 -0.421875 1.8125 -0.421875q1.40625 0 2.46875 0.71875q1.0625 0.71875 1.609375 2.03125q0.546875 1.3125 0.546875 2.859375q0 1.671875 -0.609375 3.015625q-0.59375 1.34375 -1.734375 2.0625q-1.140625 0.703125 -2.40625 0.703125q-0.921875 0 -1.65625 -0.390625q-0.734375 -0.390625 -1.203125 -0.984375l0 5.296875l-1.84375 0zm1.671875 -9.5625q0 2.109375 0.84375 3.125q0.859375 1.0 2.0625 1.0q1.234375 0 2.109375 -1.046875q0.875 -1.046875 0.875 -3.21875q0 -2.09375 -0.859375 -3.125q-0.859375 -1.03125 -2.046875 -1.03125q-1.171875 0 -2.078125 1.109375q-0.90625 1.09375 -0.90625 3.1875zm10.158569 5.390625l0 -10.890625l1.671875 0l0 1.65625q0.625 -1.15625 1.15625 -1.53125q0.546875 -0.375 1.203125 -0.375q0.921875 0 1.890625 0.59375l-0.640625 1.71875q-0.671875 -0.40625 -1.34375 -0.40625q-0.609375 0 -1.09375 0.375q-0.484375 0.359375 -0.6875 1.0q-0.3125 0.984375 -0.3125 2.15625l0 5.703125l-1.84375 0zm6.446228 -5.4375q0 -3.03125 1.671875 -4.484375q1.40625 -1.21875 3.421875 -1.21875q2.25 0 3.671875 1.484375q1.4375 1.46875 1.4375 4.0625q0 2.09375 -0.640625 3.296875q-0.625 1.203125 -1.828125 1.875q-1.203125 0.671875 -2.640625 0.671875q-2.28125 0 -3.6875 -1.46875q-1.40625 -1.46875 -1.40625 -4.21875zm1.890625 0q0 2.078125 0.90625 3.125q0.921875 1.046875 2.296875 1.046875q1.375 0 2.28125 -1.046875q0.921875 -1.046875 0.921875 -3.1875q0 -2.03125 -0.921875 -3.0625q-0.90625 -1.046875 -2.28125 -1.046875q-1.375 0 -2.296875 1.046875q-0.90625 1.03125 -0.90625 3.125zm10.642944 -7.453125l0 -2.140625l1.84375 0l0 2.140625l-1.84375 0zm-2.34375 17.109375l0.359375 -1.5625q0.546875 0.140625 0.859375 0.140625q0.578125 0 0.84375 -0.375q0.28125 -0.375 0.28125 -1.875l0 -11.4375l1.84375 0l0 11.484375q0 2.015625 -0.515625 2.796875q-0.671875 1.03125 -2.21875 1.03125q-0.75 0 -1.453125 -0.203125zm14.550903 -7.71875l1.90625 0.234375q-0.453125 1.671875 -1.671875 2.59375q-1.21875 0.921875 -3.125 0.921875q-2.390625 0 -3.796875 -1.46875q-1.390625 -1.484375 -1.390625 -4.140625q0 -2.734375 1.40625 -4.25q1.421875 -1.53125 3.6875 -1.53125q2.1875 0 3.5625 1.5q1.390625 1.484375 1.390625 4.171875q0 0.171875 -0.015625 0.5l-8.125 0q0.109375 1.796875 1.015625 2.75q0.921875 0.953125 2.28125 0.953125q1.015625 0 1.734375 -0.53125q0.71875 -0.546875 1.140625 -1.703125zm-6.0625 -2.984375l6.078125 0q-0.125 -1.375 -0.703125 -2.0625q-0.875 -1.078125 -2.28125 -1.078125q-1.265625 0 -2.140625 0.859375q-0.859375 0.84375 -0.953125 2.28125zm17.56482 2.5l1.828125 0.234375q-0.296875 1.875 -1.53125 2.9375q-1.21875 1.0625 -3.015625 1.0625q-2.234375 0 -3.59375 -1.453125q-1.34375 -1.46875 -1.34375 -4.203125q0 -1.765625 0.578125 -3.078125q0.578125 -1.328125 1.765625 -1.984375q1.203125 -0.671875 2.609375 -0.671875q1.78125 0 2.90625 0.90625q1.125 0.890625 1.4375 2.546875l-1.78125 0.28125q-0.265625 -1.109375 -0.921875 -1.65625q-0.640625 -0.5625 -1.5625 -0.5625q-1.40625 0 -2.28125 1.0q-0.859375 1.0 -0.859375 3.171875q0 2.1875 0.84375 3.1875q0.84375 1.0 2.1875 1.0q1.09375 0 1.8125 -0.671875q0.734375 -0.671875 0.921875 -2.046875zm7.6015625 2.328125l0.265625 1.640625q-0.78125 0.15625 -1.40625 0.15625q-1.0 0 -1.5625 -0.3125q-0.546875 -0.328125 -0.78125 -0.84375q-0.21875 -0.515625 -0.21875 -2.171875l0 -6.265625l-1.34375 0l0 -1.4375l1.34375 0l0 -2.703125l1.84375 -1.09375l0 3.796875l1.859375 0l0 1.4375l-1.859375 0l0 6.359375q0 0.796875 0.09375 1.03125q0.09375 0.21875 0.3125 0.359375q0.21875 0.125 0.640625 0.125q0.296875 0 0.8125 -0.078125zm1.8944092 -11.25l0 -2.125l1.84375 0l0 2.125l-1.84375 0zm0 12.90625l0 -10.890625l1.84375 0l0 10.890625l-1.84375 0zm4.0509033 -5.4375q0 -3.03125 1.671875 -4.484375q1.40625 -1.21875 3.421875 -1.21875q2.25 0 3.671875 1.484375q1.4375 1.46875 1.4375 4.0625q0 2.09375 -0.640625 3.296875q-0.625 1.203125 -1.828125 1.875q-1.203125 0.671875 -2.640625 0.671875q-2.28125 0 -3.6875 -1.46875q-1.40625 -1.46875 -1.40625 -4.21875zm1.890625 0q0 2.078125 0.90625 3.125q0.921875 1.046875 2.296875 1.046875q1.375 0 2.28125 -1.046875q0.921875 -1.046875 0.921875 -3.1875q0 -2.03125 -0.921875 -3.0625q-0.90625 -1.046875 -2.28125 -1.046875q-1.375 0 -2.296875 1.046875q-0.90625 1.03125 -0.90625 3.125zm10.658569 5.4375l0 -10.890625l1.65625 0l0 1.546875q1.203125 -1.796875 3.46875 -1.796875q0.984375 0 1.796875 0.359375q0.828125 0.359375 1.234375 0.9375q0.421875 0.5625 0.578125 1.359375q0.109375 0.5 0.109375 1.78125l0 6.703125l-1.84375 0l0 -6.625q0 -1.125 -0.21875 -1.6875q-0.21875 -0.5625 -0.765625 -0.890625q-0.546875 -0.328125 -1.28125 -0.328125q-1.1875 0 -2.046875 0.75q-0.84375 0.734375 -0.84375 2.828125l0 5.953125l-1.84375 0zm17.787354 0l0 -10.890625l1.640625 0l0 1.53125q0.515625 -0.796875 1.359375 -1.28125q0.859375 -0.5 1.953125 -0.5q1.203125 0 1.96875 0.515625q0.78125 0.5 1.09375 1.390625q1.296875 -1.90625 3.375 -1.90625q1.609375 0 2.484375 0.90625q0.875 0.890625 0.875 2.765625l0 7.46875l-1.84375 0l0 -6.859375q0 -1.109375 -0.171875 -1.59375q-0.171875 -0.484375 -0.65625 -0.78125q-0.46875 -0.296875 -1.109375 -0.296875q-1.140625 0 -1.90625 0.765625q-0.75 0.75 -0.75 2.4375l0 6.328125l-1.84375 0l0 -7.078125q0 -1.234375 -0.453125 -1.84375q-0.453125 -0.609375 -1.484375 -0.609375q-0.78125 0 -1.4375 0.40625q-0.65625 0.40625 -0.953125 1.203125q-0.296875 0.78125 -0.296875 2.265625l0 5.65625l-1.84375 0zm24.86023 -1.34375q-1.015625 0.875 -1.96875 1.234375q-0.953125 0.359375 -2.03125 0.359375q-1.796875 0 -2.765625 -0.875q-0.953125 -0.875 -0.953125 -2.25q0 -0.796875 0.359375 -1.453125q0.359375 -0.671875 0.953125 -1.0625q0.59375 -0.40625 1.328125 -0.609375q0.546875 -0.140625 1.640625 -0.28125q2.234375 -0.265625 3.296875 -0.625q0 -0.390625 0 -0.484375q0 -1.125 -0.515625 -1.59375q-0.71875 -0.625 -2.109375 -0.625q-1.296875 0 -1.921875 0.453125q-0.625 0.453125 -0.921875 1.625l-1.796875 -0.25q0.25 -1.15625 0.8125 -1.859375q0.5625 -0.71875 1.625 -1.109375q1.0625 -0.390625 2.46875 -0.390625q1.40625 0 2.265625 0.328125q0.875 0.328125 1.28125 0.828125q0.421875 0.5 0.578125 1.265625q0.09375 0.46875 0.09375 1.6875l0 2.46875q0 2.578125 0.109375 3.265625q0.125 0.671875 0.46875 1.296875l-1.921875 0q-0.28125 -0.578125 -0.375 -1.34375zm-0.140625 -4.125q-1.015625 0.40625 -3.015625 0.703125q-1.140625 0.15625 -1.625 0.375q-0.46875 0.203125 -0.71875 0.59375q-0.25 0.390625 -0.25 0.875q0 0.734375 0.546875 1.234375q0.5625 0.484375 1.640625 0.484375q1.0625 0 1.890625 -0.46875q0.84375 -0.46875 1.234375 -1.265625q0.296875 -0.625 0.296875 -1.84375l0 -0.6875zm8.939819 3.8125l0.265625 1.640625q-0.78125 0.15625 -1.40625 0.15625q-1.0 0 -1.5625 -0.3125q-0.546875 -0.328125 -0.78125 -0.84375q-0.21875 -0.515625 -0.21875 -2.171875l0 -6.265625l-1.34375 0l0 -1.4375l1.34375 0l0 -2.703125l1.84375 -1.09375l0 3.796875l1.859375 0l0 1.4375l-1.859375 0l0 6.359375q0 0.796875 0.09375 1.03125q0.09375 0.21875 0.3125 0.359375q0.21875 0.125 0.640625 0.125q0.296875 0 0.8125 -0.078125zm1.8631592 1.65625l0 -10.890625l1.671875 0l0 1.65625q0.625 -1.15625 1.15625 -1.53125q0.546875 -0.375 1.203125 -0.375q0.921875 0 1.890625 0.59375l-0.640625 1.71875q-0.671875 -0.40625 -1.34375 -0.40625q-0.609375 0 -1.09375 0.375q-0.484375 0.359375 -0.6875 1.0q-0.3125 0.984375 -0.3125 2.15625l0 5.703125l-1.84375 0zm7.133667 -12.90625l0 -2.125l1.84375 0l0 2.125l-1.84375 0zm0 12.90625l0 -10.890625l1.84375 0l0 10.890625l-1.84375 0zm3.5040894 0l3.96875 -5.65625l-3.671875 -5.234375l2.3125 0l1.671875 2.546875q0.46875 0.734375 0.75 1.234375q0.453125 -0.6875 0.828125 -1.203125l1.84375 -2.578125l2.203125 0l-3.765625 5.125l4.046875 5.765625l-2.265625 0l-2.234375 -3.390625l-0.59375 -0.90625l-2.859375 4.296875l-2.234375 0z" fill-rule="nonzero"></path><path fill="#000000" fill-opacity="0.0" d="m684.3059 361.7027l275.68506 0l0 103.46457l-275.68506 0z" fill-rule="nonzero"></path><path fill="#000000" d="m709.58295 382.33893l-9.921875 0l0 -1.71875l9.921875 0l0 1.71875zm0 4.5625l-9.921875 0l0 -1.71875l9.921875 0l0 1.71875zm15.771606 0.296875l1.828125 0.234375q-0.296875 1.875 -1.53125 2.9375q-1.21875 1.0625 -3.015625 1.0625q-2.234375 0 -3.59375 -1.453125q-1.34375 -1.46875 -1.34375 -4.203125q0 -1.765625 0.578125 -3.078125q0.578125 -1.328125 1.765625 -1.984375q1.203125 -0.671875 2.609375 -0.671875q1.78125 0 2.90625 0.90625q1.125 0.890625 1.4375 2.546875l-1.78125 0.28125q-0.265625 -1.109375 -0.921875 -1.65625q-0.640625 -0.5625 -1.5625 -0.5625q-1.40625 0 -2.28125 1.0q-0.859375 1.0 -0.859375 3.171875q0 2.1875 0.84375 3.1875q0.84375 1.0 2.1875 1.0q1.09375 0 1.8125 -0.671875q0.734375 -0.671875 0.921875 -2.046875zm3.5703125 3.984375l0 -15.03125l1.84375 0l0 5.390625q1.28125 -1.5 3.25 -1.5q1.21875 0 2.109375 0.484375q0.890625 0.46875 1.265625 1.3125q0.390625 0.84375 0.390625 2.4375l0 6.90625l-1.84375 0l0 -6.90625q0 -1.375 -0.609375 -2.0q-0.59375 -0.640625 -1.6875 -0.640625q-0.8125 0 -1.546875 0.421875q-0.71875 0.421875 -1.03125 1.15625q-0.296875 0.734375 -0.296875 2.015625l0 5.953125l-1.84375 0zm18.955444 -1.34375q-1.015625 0.875 -1.96875 1.234375q-0.953125 0.359375 -2.03125 0.359375q-1.796875 0 -2.765625 -0.875q-0.953125 -0.875 -0.953125 -2.25q0 -0.796875 0.359375 -1.453125q0.359375 -0.671875 0.953125 -1.0625q0.59375 -0.40625 1.328125 -0.609375q0.546875 -0.140625 1.640625 -0.28125q2.234375 -0.265625 3.296875 -0.625q0 -0.390625 0 -0.484375q0 -1.125 -0.515625 -1.59375q-0.71875 -0.625 -2.109375 -0.625q-1.296875 0 -1.921875 0.453125q-0.625 0.453125 -0.921875 1.625l-1.796875 -0.25q0.25 -1.15625 0.8125 -1.859375q0.5625 -0.71875 1.625 -1.109375q1.0625 -0.390625 2.46875 -0.390625q1.40625 0 2.265625 0.328125q0.875 0.328125 1.28125 0.828125q0.421875 0.5 0.578125 1.265625q0.09375 0.46875 0.09375 1.6875l0 2.46875q0 2.578125 0.109375 3.265625q0.125 0.671875 0.46875 1.296875l-1.921875 0q-0.28125 -0.578125 -0.375 -1.34375zm-0.140625 -4.125q-1.015625 0.40625 -3.015625 0.703125q-1.140625 0.15625 -1.625 0.375q-0.46875 0.203125 -0.71875 0.59375q-0.25 0.390625 -0.25 0.875q0 0.734375 0.546875 1.234375q0.5625 0.484375 1.640625 0.484375q1.0625 0 1.890625 -0.46875q0.84375 -0.46875 1.234375 -1.265625q0.296875 -0.625 0.296875 -1.84375l0 -0.6875zm4.8773193 5.46875l0 -10.890625l1.671875 0l0 1.65625q0.625 -1.15625 1.15625 -1.53125q0.546875 -0.375 1.203125 -0.375q0.921875 0 1.890625 0.59375l-0.640625 1.71875q-0.671875 -0.40625 -1.34375 -0.40625q-0.609375 0 -1.09375 0.375q-0.484375 0.359375 -0.6875 1.0q-0.3125 0.984375 -0.3125 2.15625l0 5.703125l-1.84375 0zm14.227417 -1.34375q-1.015625 0.875 -1.96875 1.234375q-0.953125 0.359375 -2.03125 0.359375q-1.796875 0 -2.765625 -0.875q-0.953125 -0.875 -0.953125 -2.25q0 -0.796875 0.359375 -1.453125q0.359375 -0.671875 0.953125 -1.0625q0.59375 -0.40625 1.328125 -0.609375q0.546875 -0.140625 1.640625 -0.28125q2.234375 -0.265625 3.296875 -0.625q0 -0.390625 0 -0.484375q0 -1.125 -0.515625 -1.59375q-0.71875 -0.625 -2.109375 -0.625q-1.296875 0 -1.921875 0.453125q-0.625 0.453125 -0.921875 1.625l-1.796875 -0.25q0.25 -1.15625 0.8125 -1.859375q0.5625 -0.71875 1.625 -1.109375q1.0625 -0.390625 2.46875 -0.390625q1.40625 0 2.265625 0.328125q0.875 0.328125 1.28125 0.828125q0.421875 0.5 0.578125 1.265625q0.09375 0.46875 0.09375 1.6875l0 2.46875q0 2.578125 0.109375 3.265625q0.125 0.671875 0.46875 1.296875l-1.921875 0q-0.28125 -0.578125 -0.375 -1.34375zm-0.140625 -4.125q-1.015625 0.40625 -3.015625 0.703125q-1.140625 0.15625 -1.625 0.375q-0.46875 0.203125 -0.71875 0.59375q-0.25 0.390625 -0.25 0.875q0 0.734375 0.546875 1.234375q0.5625 0.484375 1.640625 0.484375q1.0625 0 1.890625 -0.46875q0.84375 -0.46875 1.234375 -1.265625q0.296875 -0.625 0.296875 -1.84375l0 -0.6875zm12.002319 1.484375l1.828125 0.234375q-0.296875 1.875 -1.53125 2.9375q-1.21875 1.0625 -3.015625 1.0625q-2.234375 0 -3.59375 -1.453125q-1.34375 -1.46875 -1.34375 -4.203125q0 -1.765625 0.578125 -3.078125q0.578125 -1.328125 1.765625 -1.984375q1.203125 -0.671875 2.609375 -0.671875q1.78125 0 2.90625 0.90625q1.125 0.890625 1.4375 2.546875l-1.78125 0.28125q-0.265625 -1.109375 -0.921875 -1.65625q-0.640625 -0.5625 -1.5625 -0.5625q-1.40625 0 -2.28125 1.0q-0.859375 1.0 -0.859375 3.171875q0 2.1875 0.84375 3.1875q0.84375 1.0 2.1875 1.0q1.09375 0 1.8125 -0.671875q0.734375 -0.671875 0.921875 -2.046875zm7.6015625 2.328125l0.265625 1.640625q-0.78125 0.15625 -1.40625 0.15625q-1.0 0 -1.5625 -0.3125q-0.546875 -0.328125 -0.78125 -0.84375q-0.21875 -0.515625 -0.21875 -2.171875l0 -6.265625l-1.34375 0l0 -1.4375l1.34375 0l0 -2.703125l1.84375 -1.09375l0 3.796875l1.859375 0l0 1.4375l-1.859375 0l0 6.359375q0 0.796875 0.09375 1.03125q0.09375 0.21875 0.3125 0.359375q0.21875 0.125 0.640625 0.125q0.296875 0 0.8125 -0.078125zm9.347534 -1.84375l1.90625 0.234375q-0.453125 1.671875 -1.671875 2.59375q-1.21875 0.921875 -3.125 0.921875q-2.390625 0 -3.796875 -1.46875q-1.390625 -1.484375 -1.390625 -4.140625q0 -2.734375 1.40625 -4.25q1.421875 -1.53125 3.6875 -1.53125q2.1875 0 3.5625 1.5q1.390625 1.484375 1.390625 4.171875q0 0.171875 -0.015625 0.5l-8.125 0q0.109375 1.796875 1.015625 2.75q0.921875 0.953125 2.28125 0.953125q1.015625 0 1.734375 -0.53125q0.71875 -0.546875 1.140625 -1.703125zm-6.0625 -2.984375l6.078125 0q-0.125 -1.375 -0.703125 -2.0625q-0.875 -1.078125 -2.28125 -1.078125q-1.265625 0 -2.140625 0.859375q-0.859375 0.84375 -0.953125 2.28125zm10.439819 6.484375l0 -10.890625l1.671875 0l0 1.65625q0.625 -1.15625 1.15625 -1.53125q0.546875 -0.375 1.203125 -0.375q0.921875 0 1.890625 0.59375l-0.640625 1.71875q-0.671875 -0.40625 -1.34375 -0.40625q-0.609375 0 -1.09375 0.375q-0.484375 0.359375 -0.6875 1.0q-0.3125 0.984375 -0.3125 2.15625l0 5.703125l-1.84375 0zm20.512451 -3.5l1.90625 0.234375q-0.453125 1.671875 -1.671875 2.59375q-1.21875 0.921875 -3.125 0.921875q-2.390625 0 -3.796875 -1.46875q-1.390625 -1.484375 -1.390625 -4.140625q0 -2.734375 1.40625 -4.25q1.421875 -1.53125 3.6875 -1.53125q2.1875 0 3.5625 1.5q1.390625 1.484375 1.390625 4.171875q0 0.171875 -0.015625 0.5l-8.125 0q0.109375 1.796875 1.015625 2.75q0.921875 0.953125 2.28125 0.953125q1.015625 0 1.734375 -0.53125q0.71875 -0.546875 1.140625 -1.703125zm-6.0625 -2.984375l6.078125 0q-0.125 -1.375 -0.703125 -2.0625q-0.875 -1.078125 -2.28125 -1.078125q-1.265625 0 -2.140625 0.859375q-0.859375 0.84375 -0.953125 2.28125zm10.471069 6.484375l0 -10.890625l1.640625 0l0 1.53125q0.515625 -0.796875 1.359375 -1.28125q0.859375 -0.5 1.953125 -0.5q1.203125 0 1.96875 0.515625q0.78125 0.5 1.09375 1.390625q1.296875 -1.90625 3.375 -1.90625q1.609375 0 2.484375 0.90625q0.875 0.890625 0.875 2.765625l0 7.46875l-1.84375 0l0 -6.859375q0 -1.109375 -0.171875 -1.59375q-0.171875 -0.484375 -0.65625 -0.78125q-0.46875 -0.296875 -1.109375 -0.296875q-1.140625 0 -1.90625 0.765625q-0.75 0.75 -0.75 2.4375l0 6.328125l-1.84375 0l0 -7.078125q0 -1.234375 -0.453125 -1.84375q-0.453125 -0.609375 -1.484375 -0.609375q-0.78125 0 -1.4375 0.40625q-0.65625 0.40625 -0.953125 1.203125q-0.296875 0.78125 -0.296875 2.265625l0 5.65625l-1.84375 0zm19.469604 0l-1.71875 0l0 -15.03125l1.84375 0l0 5.359375q1.171875 -1.46875 2.984375 -1.46875q1.0 0 1.890625 0.40625q0.90625 0.40625 1.484375 1.140625q0.578125 0.734375 0.90625 1.78125q0.328125 1.03125 0.328125 2.203125q0 2.796875 -1.390625 4.328125q-1.375 1.53125 -3.3125 1.53125q-1.921875 0 -3.015625 -1.609375l0 1.359375zm-0.03125 -5.53125q0 1.96875 0.53125 2.828125q0.875 1.4375 2.359375 1.4375q1.21875 0 2.09375 -1.046875q0.890625 -1.0625 0.890625 -3.140625q0 -2.140625 -0.859375 -3.15625q-0.84375 -1.015625 -2.03125 -1.015625q-1.21875 0 -2.109375 1.0625q-0.875 1.046875 -0.875 3.03125zm17.642944 2.03125l1.90625 0.234375q-0.453125 1.671875 -1.671875 2.59375q-1.21875 0.921875 -3.125 0.921875q-2.390625 0 -3.796875 -1.46875q-1.390625 -1.484375 -1.390625 -4.140625q0 -2.734375 1.40625 -4.25q1.421875 -1.53125 3.6875 -1.53125q2.1875 0 3.5625 1.5q1.390625 1.484375 1.390625 4.171875q0 0.171875 -0.015625 0.5l-8.125 0q0.109375 1.796875 1.015625 2.75q0.921875 0.953125 2.28125 0.953125q1.015625 0 1.734375 -0.53125q0.71875 -0.546875 1.140625 -1.703125zm-6.0625 -2.984375l6.078125 0q-0.125 -1.375 -0.703125 -2.0625q-0.875 -1.078125 -2.28125 -1.078125q-1.265625 0 -2.140625 0.859375q-0.859375 0.84375 -0.953125 2.28125zm17.53357 6.484375l0 -1.375q-1.046875 1.625 -3.046875 1.625q-1.296875 0 -2.390625 -0.71875q-1.09375 -0.71875 -1.703125 -2.0q-0.59375 -1.296875 -0.59375 -2.96875q0 -1.625 0.546875 -2.953125q0.546875 -1.328125 1.625 -2.03125q1.09375 -0.71875 2.4375 -0.71875q0.984375 0 1.75 0.421875q0.765625 0.40625 1.25 1.078125l0 -5.390625l1.828125 0l0 15.03125l-1.703125 0zm-5.84375 -5.4375q0 2.09375 0.875 3.140625q0.890625 1.03125 2.09375 1.03125q1.203125 0 2.046875 -0.984375q0.859375 -1.0 0.859375 -3.03125q0 -2.234375 -0.875 -3.28125q-0.859375 -1.046875 -2.109375 -1.046875q-1.234375 0 -2.0625 1.015625q-0.828125 1.0 -0.828125 3.15625zm17.705444 5.4375l0 -1.375q-1.046875 1.625 -3.046875 1.625q-1.296875 0 -2.390625 -0.71875q-1.09375 -0.71875 -1.703125 -2.0q-0.59375 -1.296875 -0.59375 -2.96875q0 -1.625 0.546875 -2.953125q0.546875 -1.328125 1.625 -2.03125q1.09375 -0.71875 2.4375 -0.71875q0.984375 0 1.75 0.421875q0.765625 0.40625 1.25 1.078125l0 -5.390625l1.828125 0l0 15.03125l-1.703125 0zm-5.84375 -5.4375q0 2.09375 0.875 3.140625q0.890625 1.03125 2.09375 1.03125q1.203125 0 2.046875 -0.984375q0.859375 -1.0 0.859375 -3.03125q0 -2.234375 -0.875 -3.28125q-0.859375 -1.046875 -2.109375 -1.046875q-1.234375 0 -2.0625 1.015625q-0.828125 1.0 -0.828125 3.15625zm10.642944 -7.46875l0 -2.125l1.84375 0l0 2.125l-1.84375 0zm0 12.90625l0 -10.890625l1.84375 0l0 10.890625l-1.84375 0zm4.7384033 0l0 -10.890625l1.65625 0l0 1.546875q1.203125 -1.796875 3.46875 -1.796875q0.984375 0 1.796875 0.359375q0.828125 0.359375 1.234375 0.9375q0.421875 0.5625 0.578125 1.359375q0.109375 0.5 0.109375 1.78125l0 6.703125l-1.84375 0l0 -6.625q0 -1.125 -0.21875 -1.6875q-0.21875 -0.5625 -0.765625 -0.890625q-0.546875 -0.328125 -1.28125 -0.328125q-1.1875 0 -2.046875 0.75q-0.84375 0.734375 -0.84375 2.828125l0 5.953125l-1.84375 0zm11.517944 0.90625l1.796875 0.265625q0.109375 0.828125 0.625 1.203125q0.6875 0.515625 1.875 0.515625q1.28125 0 1.96875 -0.515625q0.703125 -0.515625 0.953125 -1.4375q0.140625 -0.5625 0.125 -2.359375q-1.203125 1.421875 -3.0 1.421875q-2.25 0 -3.484375 -1.609375q-1.234375 -1.625 -1.234375 -3.890625q0 -1.5625 0.5625 -2.875q0.578125 -1.328125 1.640625 -2.046875q1.078125 -0.71875 2.515625 -0.71875q1.9375 0 3.1875 1.5625l0 -1.3125l1.703125 0l0 9.40625q0 2.546875 -0.53125 3.609375q-0.515625 1.0625 -1.640625 1.671875q-1.109375 0.625 -2.75 0.625q-1.953125 0 -3.15625 -0.875q-1.203125 -0.875 -1.15625 -2.640625zm1.53125 -6.546875q0 2.140625 0.84375 3.125q0.859375 0.984375 2.140625 0.984375q1.265625 0 2.125 -0.96875q0.859375 -0.984375 0.859375 -3.078125q0 -2.0 -0.890625 -3.015625q-0.875 -1.015625 -2.125 -1.015625q-1.234375 0 -2.09375 1.0q-0.859375 1.0 -0.859375 2.96875zm9.924194 2.390625l1.828125 -0.28125q0.15625 1.09375 0.859375 1.6875q0.703125 0.578125 1.96875 0.578125q1.265625 0 1.875 -0.515625q0.625 -0.53125 0.625 -1.21875q0 -0.625 -0.546875 -0.984375q-0.375 -0.25 -1.890625 -0.625q-2.03125 -0.515625 -2.8125 -0.890625q-0.78125 -0.375 -1.1875 -1.03125q-0.40625 -0.671875 -0.40625 -1.46875q0 -0.71875 0.328125 -1.34375q0.34375 -0.625 0.90625 -1.03125q0.4375 -0.3125 1.171875 -0.53125q0.75 -0.234375 1.609375 -0.234375q1.28125 0 2.25 0.375q0.96875 0.375 1.421875 1.0q0.46875 0.625 0.640625 1.6875l-1.8125 0.25q-0.109375 -0.84375 -0.703125 -1.3125q-0.59375 -0.484375 -1.671875 -0.484375q-1.265625 0 -1.8125 0.421875q-0.546875 0.421875 -0.546875 0.984375q0 0.359375 0.234375 0.65625q0.21875 0.296875 0.703125 0.484375q0.28125 0.109375 1.625 0.46875q1.96875 0.53125 2.734375 0.859375q0.78125 0.328125 1.21875 0.96875q0.4375 0.640625 0.4375 1.578125q0 0.921875 -0.546875 1.75q-0.53125 0.8125 -1.546875 1.265625q-1.015625 0.4375 -2.296875 0.4375q-2.125 0 -3.234375 -0.875q-1.109375 -0.890625 -1.421875 -2.625z" fill-rule="nonzero"></path><path fill="#ea9999" d="m634.38934 215.7898l0 0c0 -4.628998 3.7525024 -8.381546 8.381531 -8.381546l33.525208 0l0 0c2.2229004 0 4.3547974 0.88305664 5.9266357 2.454895c1.5718384 1.5718536 2.454895 3.7037354 2.454895 5.926651l0 95.64038c0 4.628998 -3.7525635 8.381531 -8.381531 8.381531l-33.525208 0c-4.6290283 0 -8.381531 -3.752533 -8.381531 -8.381531z" fill-rule="nonzero"></path><path stroke="#666666" stroke-width="1.0" stroke-linejoin="round" stroke-linecap="butt" d="m634.38934 215.7898l0 0c0 -4.628998 3.7525024 -8.381546 8.381531 -8.381546l33.525208 0l0 0c2.2229004 0 4.3547974 0.88305664 5.9266357 2.454895c1.5718384 1.5718536 2.454895 3.7037354 2.454895 5.926651l0 95.64038c0 4.628998 -3.7525635 8.381531 -8.381531 8.381531l-33.525208 0c-4.6290283 0 -8.381531 -3.752533 -8.381531 -8.381531z" fill-rule="nonzero"></path></g></svg>

